<?xml version="1.0" standalone="no"?>
<!DOCTYPE svg PUBLIC "-//W3C//DTD SVG 20010904//EN"
 "http://www.w3.org/TR/2001/REC-SVG-20010904/DTD/svg10.dtd">
<svg version="1.0" xmlns="http://www.w3.org/2000/svg"
 width="700.000000pt" height="700.000000pt" viewBox="0 0 700.000000 700.000000"
 preserveAspectRatio="xMidYMid meet">
<metadata>
Created by potrace 1.11, written by Peter Selinger 2001-2013
</metadata>
<g transform="translate(0.000000,700.000000) scale(0.100000,-0.100000)"
fill="#000000" stroke="none">
<path d="M680 6993 c-100 -17 -226 -68 -315 -127 -160 -106 -270 -254 -337
-452 l-23 -69 -3 -2810 c-3 -3092 -7 -2878 58 -3035 84 -204 271 -383 476
-454 38 -14 99 -30 134 -36 47 -8 865 -10 2870 -8 l2805 3 70 24 c252 85 431
248 524 478 60 147 56 -70 56 2998 l0 2820 -28 90 c-85 273 -273 462 -552 556
l-70 24 -2820 1 c-1551 1 -2831 -1 -2845 -3z m3105 -804 c362 -35 735 -161
1056 -356 918 -557 1398 -1605 1218 -2662 -105 -621 -433 -1178 -934 -1587
-124 -102 -339 -238 -485 -308 l-73 -36 -18 39 c-35 79 -35 77 28 106 32 14
94 47 138 72 697 398 1153 1087 1245 1883 14 122 14 418 0 540 -93 803 -557
1498 -1265 1893 -698 390 -1576 405 -2299 41 -244 -124 -431 -260 -632 -459
-326 -325 -543 -709 -654 -1155 -44 -177 -61 -307 -67 -522 -6 -210 4 -344 39
-528 142 -749 621 -1391 1294 -1732 l121 -62 -25 -57 -25 -58 -128 65 c-677
344 -1176 992 -1343 1744 -78 354 -78 757 0 1120 73 340 246 716 460 1000 119
157 328 370 482 490 107 83 274 189 409 257 461 235 930 323 1458 272z m75
-224 c772 -121 1436 -610 1780 -1310 163 -332 240 -667 240 -1043 0 -280 -33
-490 -120 -754 -165 -502 -511 -949 -961 -1241 -114 -75 -316 -180 -329 -172
-24 15 -7 38 47 61 75 33 176 92 288 167 441 296 777 748 929 1251 336 1108
-168 2279 -1199 2786 -339 167 -653 240 -1033 240 -378 0 -701 -74 -1029 -234
-699 -343 -1169 -987 -1290 -1767 -21 -138 -24 -486 -5 -629 17 -123 56 -300
94 -420 185 -582 612 -1089 1152 -1366 107 -54 130 -74 107 -88 -30 -19 -350
170 -521 308 -689 557 -1015 1451 -844 2316 200 1013 1023 1773 2061 1905 141
18 488 13 633 -10z m-240 -147 c0 -39 -68 -499 -74 -505 -3 -4 -8 -4 -10 -2
-4 4 50 461 60 507 2 12 9 22 14 22 6 0 10 -10 10 -22z m-216 -25 c9 -56 56
-451 56 -468 0 -8 -4 -15 -8 -15 -4 0 -22 107 -41 238 -18 130 -35 247 -38
260 -4 15 -1 22 10 22 10 0 17 -13 21 -37z m-132 -253 c60 -146 107 -272 106
-282 -2 -9 -58 112 -125 269 -87 204 -117 283 -105 281 10 -2 52 -91 124 -268z
m469 -4 c-64 -151 -117 -271 -119 -266 -3 8 189 507 205 533 2 4 10 7 17 7 9
0 -28 -98 -103 -274z m-597 -87 c131 -170 236 -315 234 -321 -2 -6 -115 131
-250 305 -136 173 -244 318 -241 321 4 3 10 6 13 6 4 0 114 -140 244 -311z
m956 296 c-1 -17 -475 -625 -478 -616 -4 13 461 632 471 628 5 -1 8 -7 7 -12z
m-1111 -365 c193 -149 354 -276 357 -282 20 -32 -62 25 -389 272 -217 164
-360 278 -353 282 6 4 16 6 22 4 7 -3 170 -127 363 -276z m1399 272 c9 -6
-101 -95 -347 -280 -314 -237 -424 -316 -386 -274 14 15 709 561 715 561 3 0
11 -3 18 -7z m331 -175 c8 -11 -81 -51 -450 -201 -253 -103 -468 -186 -477
-184 -13 2 884 394 909 397 4 1 11 -5 18 -12z m-1946 -193 c246 -104 440 -190
430 -192 -14 -2 -571 217 -901 354 -36 15 -35 39 2 32 11 -3 223 -90 469 -194z
m787 -134 l0 -110 115 0 115 0 0 -65 0 -64 -112 -3 -113 -3 -3 -257 -2 -258
-65 0 -65 0 0 260 0 260 -110 0 -110 0 0 65 0 65 110 0 110 0 0 110 0 110 65
0 65 0 0 -110z m-1671 -20 c-55 -209 -46 -419 21 -490 70 -74 202 -11 354 170
39 47 86 105 103 129 l32 44 7 -28 c13 -51 -13 -97 -131 -235 -190 -221 -245
-318 -266 -466 -14 -101 4 -221 44 -299 l21 -40 8 85 c18 197 53 326 104 385
26 29 26 30 21 5 -24 -109 -41 -275 -41 -400 0 -128 2 -152 23 -202 30 -78
106 -159 183 -197 84 -43 90 -41 68 17 -34 88 -60 261 -67 432 -6 147 -5 164
9 152 23 -19 45 -85 68 -212 12 -63 33 -144 47 -180 52 -131 151 -243 260
-295 67 -31 78 -32 67 -2 -4 12 -9 168 -11 347 -4 323 -4 324 16 306 33 -30
50 -99 67 -279 27 -295 76 -438 183 -540 51 -49 65 -57 98 -57 39 0 175 -28
253 -53 42 -13 51 -12 145 15 55 16 129 32 165 35 77 7 111 29 169 107 92 124
122 225 151 496 16 154 25 203 42 239 13 25 28 46 33 48 15 4 12 -612 -2 -654
-15 -43 -1 -43 81 -1 153 81 234 212 290 470 34 153 57 218 76 218 32 0 -16
-452 -61 -579 -10 -30 -16 -57 -14 -60 8 -7 111 45 152 76 46 35 90 101 114
170 30 89 22 350 -17 560 -7 36 -6 37 11 23 45 -37 89 -188 100 -342 4 -46 9
-94 12 -108 5 -25 5 -24 23 10 55 107 65 295 22 412 -37 104 -131 237 -290
413 -70 78 -84 106 -80 163 l3 47 49 -69 c72 -102 221 -249 283 -280 70 -35
121 -35 155 2 45 49 53 85 52 242 0 136 -6 177 -40 299 -12 41 29 9 59 -48 53
-96 68 -158 74 -291 5 -121 4 -130 -36 -298 -25 -102 -41 -190 -39 -215 l3
-42 43 39 c29 27 58 69 87 130 52 107 71 175 88 309 6 57 16 96 22 94 5 -2 19
-19 30 -37 42 -73 11 -308 -60 -455 -33 -67 -63 -108 -167 -227 -33 -38 -65
-95 -112 -203 -82 -183 -110 -228 -190 -302 -101 -94 -186 -138 -441 -229
-155 -54 -298 -123 -342 -163 -29 -27 -53 -61 -53 -75 0 -12 40 -5 121 23 47
16 130 36 185 46 54 9 136 28 182 41 45 14 88 22 94 18 7 -4 9 -31 6 -74 -7
-87 -42 -165 -107 -233 -34 -36 -51 -63 -51 -79 0 -21 -11 -31 -57 -55 -71
-38 -112 -51 -233 -78 -81 -17 -96 -24 -109 -47 -13 -23 -14 -36 -3 -84 10
-50 9 -66 -7 -123 -12 -43 -21 -115 -25 -206 -3 -77 -11 -180 -17 -230 -19
-156 -9 -186 125 -365 140 -188 177 -287 157 -415 -10 -65 -53 -176 -76 -195
-9 -7 -12 -2 -13 21 -1 51 -19 57 -27 10 -13 -81 -98 -171 -183 -196 -23 -7
-23 -6 -9 22 8 15 17 42 21 58 l8 30 -29 -26 c-45 -41 -89 -64 -228 -115 -72
-27 -148 -63 -172 -81 -53 -40 -57 -35 -58 77 0 108 36 177 155 296 74 75 90
87 90 68 0 -12 -5 -35 -10 -50 -6 -15 -8 -29 -6 -31 3 -3 32 16 64 41 41 31
68 62 86 97 26 54 28 53 38 -15 2 -14 9 -7 27 24 38 67 38 147 2 330 -46 236
-46 248 -17 389 14 68 26 138 26 155 0 30 -2 28 -31 -24 -48 -88 -59 -88 -28
0 25 71 29 96 29 191 0 60 -3 109 -7 108 -5 -1 -44 -20 -88 -43 -76 -39 -81
-44 -95 -88 -17 -54 -27 -60 -36 -23 -3 14 -10 22 -15 19 -15 -9 -10 -74 11
-154 41 -158 23 -200 -84 -200 -59 0 -64 2 -70 24 -10 40 1 52 39 48 59 -7 81
32 54 92 -17 37 -46 45 -113 29 -42 -10 -68 -11 -95 -3 -88 24 -132 3 -134
-66 -1 -46 24 -68 71 -59 33 6 33 6 30 -27 -3 -30 -7 -33 -47 -41 -56 -11
-108 -1 -121 23 -15 28 -12 87 10 170 21 80 26 145 11 154 -5 3 -12 -6 -16
-22 l-7 -27 -14 39 c-20 56 -38 73 -126 117 l-78 39 0 -112 c0 -91 5 -126 23
-180 26 -75 20 -79 -19 -12 -14 24 -28 44 -31 44 -12 0 13 -117 53 -243 24
-75 44 -146 44 -157 0 -24 8 -25 31 -4 16 15 19 14 33 -13 25 -44 56 -76 131
-133 91 -69 141 -117 166 -158 12 -17 25 -30 30 -26 16 9 49 82 49 106 0 19 2
20 10 8 5 -8 10 -25 10 -37 0 -13 4 -23 9 -23 8 0 58 64 154 196 67 93 66 77
-2 -54 -67 -128 -120 -206 -148 -216 -8 -3 -11 -2 -8 4 3 5 3 21 -1 36 l-7 27
-20 -39 c-10 -21 -31 -51 -45 -66 l-25 -27 -36 61 c-25 42 -58 79 -106 117
-38 31 -95 81 -126 112 l-57 56 -28 -36 -28 -36 -13 73 c-6 40 -31 137 -54
215 -40 133 -43 152 -50 312 -5 130 -12 185 -27 232 -18 54 -20 69 -10 121 16
86 14 89 -85 94 -70 4 -96 10 -160 41 -119 56 -167 92 -167 126 0 16 -8 35
-17 42 -66 55 -143 212 -143 293 0 55 8 58 86 36 38 -11 125 -29 193 -41 152
-24 201 -36 249 -60 20 -11 44 -19 54 -19 15 0 16 4 7 30 -25 70 -136 129
-459 242 -214 75 -355 166 -433 279 -20 30 -70 128 -110 217 -64 142 -82 173
-138 235 -122 134 -168 218 -205 373 -24 98 -23 247 1 299 l18 40 9 -80 c19
-184 82 -354 160 -440 28 -30 55 -55 60 -55 18 0 2 115 -36 268 -30 117 -36
159 -36 246 0 117 19 225 51 289 26 50 67 107 78 107 5 0 0 -32 -10 -70z
m3131 42 c0 -16 -58 -25 -587 -90 -322 -40 -588 -70 -591 -67 -3 3 -3 7 -1 10
5 5 1108 162 1152 164 20 1 27 -4 27 -17z m-2442 -71 c310 -43 566 -82 569
-85 4 -3 4 -8 2 -10 -6 -6 -1167 139 -1175 146 -10 10 5 28 24 28 9 0 270 -36
580 -79z m1645 -210 c247 -31 312 -42 325 -56 16 -16 15 -17 -18 -11 -19 3
-172 24 -340 46 -168 22 -315 43 -327 45 -38 9 -26 23 15 18 20 -2 176 -21
345 -42z m-1063 29 c0 -5 -1 -10 -2 -10 -2 0 -163 -22 -358 -49 -195 -26 -356
-48 -357 -47 -1 1 2 8 7 16 6 10 100 25 342 56 391 49 368 47 368 34z m-410
-274 c-387 -166 -477 -201 -483 -189 -5 8 -7 16 -5 17 23 16 920 375 938 375
14 0 -189 -91 -450 -203z m599 200 c-2 -2 -197 -155 -433 -340 -298 -233 -432
-332 -438 -323 -4 6 -2 17 5 24 37 36 844 642 856 642 8 1 12 -1 10 -3z m753
-322 c233 -174 425 -318 426 -320 2 -1 0 -9 -5 -17 -6 -11 -103 59 -432 313
-232 181 -428 334 -435 340 -39 43 69 -33 446 -316z m171 140 c254 -102 465
-188 470 -191 5 -3 2 -10 -7 -15 -12 -7 -134 40 -474 183 -251 105 -464 195
-472 200 -12 7 -12 8 3 9 10 0 226 -84 480 -186z m-893 147 c0 -8 -434 -597
-461 -625 -5 -6 -11 -3 -14 6 -4 10 75 120 231 322 131 168 239 306 241 306 2
0 3 -4 3 -9z m486 -297 c131 -169 238 -309 237 -313 -7 -23 -45 22 -247 289
-207 274 -247 330 -234 330 3 0 113 -138 244 -306z m1102 285 c70 -8 102 -16
102 -25 0 -22 -14 -23 -126 -8 -84 12 -114 20 -129 36 l-20 20 35 -5 c19 -4
81 -11 138 -18z m-2782 -8 c-12 -13 -43 -22 -109 -30 -51 -7 -102 -15 -114
-18 -18 -4 -23 -1 -23 15 0 18 9 22 58 28 31 3 77 10 102 14 25 4 58 8 74 9
28 1 28 0 12 -18z m1001 -612 c-161 -400 -195 -476 -198 -448 -4 28 36 130
191 499 107 256 196 457 198 448 2 -9 -84 -233 -191 -499z m635 50 c156 -368
192 -460 188 -487 -4 -27 -35 40 -194 434 -170 419 -212 531 -193 513 4 -3 93
-210 199 -460z m-392 95 c0 -3 -27 -226 -60 -496 -33 -269 -60 -491 -60 -494
0 -8 -29 -4 -35 5 -4 8 116 905 130 969 5 19 25 33 25 16z m164 -11 c13 -45
138 -954 132 -968 -3 -8 -11 -15 -18 -15 -10 0 -29 125 -72 468 -32 257 -61
482 -64 500 -5 34 13 46 22 15z m1904 -140 c143 -56 174 -72 179 -91 3 -13 3
-25 1 -28 -4 -4 -367 142 -377 151 -6 6 7 35 16 35 4 1 86 -30 181 -67z
m-3799 44 c9 -11 -29 -31 -189 -99 -110 -47 -200 -81 -199 -75 2 41 21 54 180
118 90 37 171 68 180 68 9 1 22 -5 28 -12z m3071 -214 c0 -13 -3 -23 -6 -23
-3 0 -25 17 -50 37 -29 25 -44 45 -44 61 0 23 2 22 50 -15 32 -25 49 -46 50
-60z m-2441 65 c0 -15 -17 -36 -50 -61 -48 -36 -49 -37 -49 -13 0 16 14 35 47
60 25 20 48 36 50 36 1 0 3 -10 2 -22z m363 -189 c-76 -102 -92 -118 -100
-103 -8 15 8 42 87 144 80 106 97 123 99 103 3 -18 -21 -57 -86 -144z m1624
59 c48 -62 92 -118 97 -125 5 -7 5 -19 -1 -29 -8 -14 -25 4 -101 104 -50 67
-91 130 -91 142 0 11 2 20 4 20 2 0 43 -51 92 -112z m1095 -396 c286 -214 295
-223 291 -252 -2 -16 -6 -30 -8 -30 -3 0 -153 115 -334 256 -299 232 -329 257
-319 275 10 20 11 20 42 -4 18 -13 165 -123 328 -245z m-3447 241 c4 -9 3 -20
-1 -24 -4 -4 -154 -123 -333 -263 -318 -251 -325 -256 -331 -229 -3 16 -1 33
5 40 15 17 639 492 647 492 4 1 10 -7 13 -16z m386 -351 c0 -3 -167 -228 -372
-500 l-372 -493 -18 23 c-10 13 -16 27 -15 32 2 4 168 221 370 481 302 388
372 472 388 468 10 -3 19 -8 19 -11z m2711 -444 c199 -255 364 -469 366 -478
1 -8 -4 -24 -12 -35 -13 -17 -17 -17 -29 -5 -53 57 -726 962 -721 970 3 6 12
10 20 10 7 0 176 -208 376 -462z m-426 -668 l206 -485 -28 -22 c-26 -21 -29
-22 -36 -5 -4 9 -95 233 -201 497 -192 473 -194 480 -173 492 12 6 23 11 23
10 1 -1 95 -220 209 -487z m-2035 445 c10 -13 -21 -98 -181 -495 -106 -264
-196 -480 -200 -480 -4 0 -17 8 -29 18 l-23 19 181 429 c234 556 220 524 230
524 5 0 15 -7 22 -15z m355 -947 c14 -65 34 -136 45 -159 24 -46 85 -115 142
-161 l39 -30 -7 43 c-4 24 -5 42 -2 39 3 -3 42 -50 86 -106 135 -169 147 -206
112 -356 -26 -113 -24 -151 5 -98 l19 35 7 -70 c4 -38 14 -89 22 -113 l15 -42
-52 6 c-66 8 -159 39 -212 70 -41 24 -128 106 -148 140 -9 16 -12 11 -16 -29
l-5 -49 -75 50 c-178 117 -260 260 -247 431 8 98 38 181 109 301 63 105 108
201 108 229 0 28 13 34 23 9 5 -13 19 -76 32 -140z m722 125 c-12 -12 -49 -29
-82 -38 -54 -14 -83 -14 -152 1 -38 7 -26 -12 19 -32 44 -20 122 -25 172 -11
27 7 28 7 16 -8 -35 -42 -128 -61 -224 -45 -32 5 -68 17 -78 27 -17 16 -68
103 -68 117 0 8 122 13 277 12 l142 -1 -22 -22z"/>
<path d="M4483 3668 c-61 -84 -132 -149 -196 -178 -55 -25 -177 -63 -183 -57
-2 1 4 29 12 62 15 67 18 124 6 109 -5 -5 -20 -40 -35 -79 -15 -38 -44 -99
-64 -134 -30 -52 -48 -70 -86 -90 l-48 -24 30 -13 c16 -7 35 -22 41 -34 12
-22 12 -22 53 18 77 74 179 125 396 197 142 48 221 80 260 106 59 40 194 161
151 137 -14 -8 -64 -38 -112 -67 -75 -45 -264 -118 -276 -106 -2 2 4 16 15 32
25 37 79 163 69 163 -1 0 -16 -19 -33 -42z"/>
<path d="M2210 3639 c113 -105 160 -130 381 -204 212 -71 321 -125 391 -192
36 -35 36 -35 48 -13 6 12 25 27 42 34 l30 13 -46 23 c-39 18 -54 35 -91 98
-25 42 -54 104 -66 139 -27 82 -43 93 -34 22 3 -30 11 -69 15 -88 5 -19 8 -36
6 -38 -2 -2 -49 12 -106 31 -114 39 -146 60 -239 156 -47 49 -61 59 -56 40 10
-32 33 -78 57 -113 11 -16 18 -30 16 -33 -7 -6 -165 49 -218 76 -25 12 -76 42
-113 66 -37 24 -71 44 -75 44 -4 -1 22 -28 58 -61z"/>
<path d="M2403 3206 c5 -47 13 -67 48 -112 56 -73 90 -100 174 -141 100 -48
108 -41 24 20 -53 37 -86 71 -116 117 -23 35 -40 66 -38 68 2 2 38 -4 80 -14
71 -17 78 -21 96 -55 28 -55 122 -152 174 -180 25 -13 45 -27 45 -30 0 -4 -14
-12 -31 -19 -36 -15 -26 -24 38 -34 59 -9 71 -1 88 57 22 74 20 114 -7 128
-13 6 -48 33 -78 59 -77 66 -220 136 -295 145 -57 7 -155 28 -191 42 -15 6
-16 0 -11 -51z"/>
<path d="M4500 3244 c-25 -8 -74 -19 -110 -25 -81 -14 -181 -64 -263 -130 -34
-28 -79 -60 -100 -70 -37 -19 -39 -22 -32 -57 3 -20 13 -58 21 -84 15 -46 17
-48 52 -47 20 1 48 4 62 8 l25 7 -33 18 c-19 10 -31 20 -29 23 3 3 34 22 68
42 52 30 73 50 117 116 l54 80 79 22 c43 12 79 18 79 14 0 -3 -16 -29 -35 -58
-34 -51 -93 -104 -152 -139 -87 -49 6 -25 115 30 84 43 147 127 157 209 8 65
6 66 -75 41z"/>
<path d="M3663 3199 c-24 -12 -57 -40 -74 -62 -17 -23 -29 -34 -25 -24 3 11 9
30 12 43 6 23 5 24 -22 14 -16 -6 -50 -12 -77 -12 -47 -1 -48 -2 -42 -27 6
-26 6 -26 -14 3 -24 36 -87 76 -120 76 -23 0 -24 -1 -6 -20 18 -20 18 -20 -15
-4 -43 22 -108 28 -142 15 -34 -13 -68 -66 -68 -105 l0 -29 23 21 c32 30 42
27 17 -5 -11 -16 -23 -43 -26 -60 -6 -33 -6 -33 32 -33 39 0 116 -29 128 -48
4 -7 -5 -7 -31 0 -50 14 -98 4 -147 -29 l-41 -28 62 -6 c70 -7 117 -35 153
-94 25 -40 40 -38 40 6 0 40 13 31 60 -43 33 -50 39 -56 45 -38 3 11 11 20 16
20 9 0 69 -87 69 -101 0 -4 5 -20 11 -36 l11 -28 24 54 c13 30 34 69 46 89
l21 34 15 -27 14 -27 28 48 c15 27 37 57 48 67 20 18 20 18 27 -12 4 -17 10
-31 13 -30 4 0 21 19 37 42 39 54 106 89 163 85 23 -2 42 -2 42 0 0 2 -12 14
-27 27 -41 35 -103 50 -154 37 -38 -10 -40 -9 -25 7 19 21 80 41 124 41 28 0
32 4 38 36 9 49 -2 104 -25 128 -15 15 -38 21 -86 24 -58 4 -63 6 -48 18 31
23 -55 17 -104 -7z"/>
<path d="M3085 2801 c-11 -5 -30 -11 -42 -16 -30 -10 -31 -62 -2 -99 21 -27
43 -27 32 0 -5 14 -3 15 15 5 11 -6 31 -11 44 -11 21 -1 21 -2 5 -11 -30 -18
-8 -31 40 -24 28 4 49 2 58 -5 8 -7 19 -9 25 -5 16 10 12 33 -10 45 -11 6 -22
21 -26 34 -7 31 -63 83 -94 90 -14 2 -34 1 -45 -3z m49 -57 c23 -9 20 -23 -4
-17 -11 3 -20 9 -20 14 0 11 3 11 24 3z"/>
<path d="M3816 2779 c-19 -16 -38 -40 -41 -52 -4 -12 -19 -32 -33 -44 -32 -27
-19 -50 19 -37 13 4 45 7 72 5 29 -2 47 1 47 8 0 6 -4 11 -10 11 -23 0 -8 16
25 26 32 10 35 10 30 -7 -9 -27 10 -23 34 7 33 42 28 77 -14 97 -53 25 -89 22
-129 -14z m70 -38 c-3 -5 -15 -11 -26 -14 -17 -4 -19 -3 -9 9 12 15 44 20 35
5z"/>
<path d="M3418 2258 c-41 -14 -34 -25 22 -32 54 -7 150 2 150 14 0 25 -119 38
-172 18z"/>
<path d="M2812 1535 c-17 -56 -15 -153 4 -207 17 -53 73 -122 115 -143 44 -23
55 -18 26 13 -34 35 -34 42 1 42 16 0 31 3 35 6 3 4 -18 29 -48 56 -64 58
-102 130 -113 213 l-8 60 -12 -40z"/>
</g>
</svg>
